# xmcd CD database file
#
# Track frame offsets:
#	150
#	20116
#	28074
#	44637
#	62312
#	81231
#	95779
#	109948
#	131410
#	140948
#	159680
#	177881
#	198253
#	216889
#	239919
#	258026
#	275333
#	292045
#	308849
#	326846
#
# Disc length: 4400 seconds
#
# Revision: 0
# Processed by: cddbd v1.5.2PL0 Copyright (c) Steve Scherf et al.
# Submitted via: CDex 1.70beta2
#
DISCID=3a112e14
DTITLE=Hello!Project - ハロー!プロジェクトの全曲から集めちゃいました! Vol.3 掟ポルシェ編
DYEAR=2014
DGENRE=Hello!Project
TTITLE0=はなをぷーん/きら☆ぴか
TTITLE1=すき・すき・きらい・きらい・きらい・すき。/ミニモニ。
TTITLE2=グランドでも廊下でも目立つ君/須藤茉麻・熊井友理奈 (Berryz工房)
TTITLE3=全体的に大好きです。/シェキドル
TTITLE4=SEXY BOY～そよ風に寄り添って～/モーニング娘。
TTITLE5=大きな愛でもてなして/℃-ute
TTITLE6=こんにちぱ/月島きらり starring 久住小春 (モーニング娘。)
TTITLE7=ふわふわふー/メロン記念日
TTITLE8=いつか大空の下で/めぐみ・瞳・雅恵・あゆみ・レイ・チカ・マミ・ユカ・サエコ・タミ・アンサンブル
TTITLE9=満月/藤本美貴
TTITLE10=ありがとう!おともだち。/Berryz工房
TTITLE11=通学列車/モーニング娘。
TTITLE12=FIRST KISS/あぁ! 
TTITLE13=ダレニモイワナイデ/真野恵里菜
TTITLE14=おへその国からこんにちは/ハロプロ研修生
TTITLE15=ギャグ100回分愛してください/Berryz工房
TTITLE16=夢見る１５歳/スマイレージ
TTITLE17=抱いてよ! PLEASE GO ON/後藤真希
TTITLE18=This is 運命/メロン記念日
TTITLE19=ミニモニ。ダンシン!/ミニモニ。
EXTD=YEAR: 2014
EXTT0=
EXTT1=
EXTT2=
EXTT3=
EXTT4=
EXTT5=
EXTT6=
EXTT7=
EXTT8=
EXTT9=
EXTT10=
EXTT11=
EXTT12=
EXTT13=
EXTT14=
EXTT15=
EXTT16=
EXTT17=
EXTT18=
EXTT19=
PLAYORDER=
